# xmcd
#
# Track frame offsets:
#	150
#	13636
#	25267
#	36876
#	49852
#	60626
#	73457
#	84899
#	98434
#	110268
#	121456
#	133394
#	145125
#	158767
#	171603
#	184378
#	196193
#	207752
#	219122
#	230893
#
# Disc length: 3251 seconds
# Revision: 1
# Processed by: cddbd v1.5.2PL0 Copyright (c) Steve Scherf et al.
# Submitted via: dBpowerAMP V12.0
#
DISCID=220cb114
DTITLE=Robert Johnson - The Complete Collection, Disc 1
DYEAR=2008
DGENRE=Blues
TTITLE0=I Believe I'll Dust My Broom
TTITLE1=Phonograph Blues
TTITLE2=Phonograph Blues (Alt. version - Take 2)
TTITLE3=Ramblin' on My Mind
TTITLE4=Ramblin on My Mind (Alt. version - Take 2)
TTITLE5=Kindhearted Woman Blues
TTITLE6=Kindhearted Woman Blues (Alt. version - Take 2)
TTITLE7=Terraplane Blues
TTITLE8=I'm a Steady Rollin' Man
TTITLE9=Walking Blues
TTITLE10=Last Fair Deal Gone Down
TTITLE11=Dead Shrimp Blues
TTITLE12=Sweet Home Chicago
TTITLE13=32-20 Blues
TTITLE14=Come on in My Kitchen
TTITLE15=Come on in My Kitchen (Alt. version - Take 2)
TTITLE16=If I Had Possession Over Judgement Day
TTITLE17=Me and the Devil Blues
TTITLE18=Me and the Devil Blues (Alt. version - Take 2)
TTITLE19=Preaching Blues (Up Jumped the Devil)
EXTD=
EXTT0=
EXTT1=
EXTT2=
EXTT3=
EXTT4=
EXTT5=
EXTT6=
EXTT7=
EXTT8=
EXTT9=
EXTT10=
EXTT11=
EXTT12=
EXTT13=
EXTT14=
EXTT15=
EXTT16=
EXTT17=
EXTT18=
EXTT19=
PLAYORDER=
